<?xml version="1.0" encoding="utf-8"?>
<!-- Generator: Adobe Illustrator 19.2.1, SVG Export Plug-In . SVG Version: 6.00 Build 0)  -->
<svg version="1.1" id="Capa_1" xmlns="http://www.w3.org/2000/svg" xmlns:xlink="http://www.w3.org/1999/xlink" x="0px" y="0px"
	 viewBox="0 0 76.5 76.5" style="enable-background:new 0 0 76.5 76.5;" xml:space="preserve">
<style type="text/css">
	.st0{fill:#0965AA;}
</style>
<g>
	<g>
		<g>
			<path class="st0" d="M15,39.1C14.6,27.2,25,16.2,37,16c6.1-0.5,12,1.8,16.6,5.7c-1.9,2.1-3.8,4.1-5.9,6.1
				c-4.1-2.5-8.9-4.3-13.7-2.7c-7.6,2.2-12.3,11.2-9.4,18.7c2.3,7.8,11.8,12.1,19.3,8.8c3.9-1.4,6.4-4.9,7.5-8.8
				c-4.4-0.1-8.8,0-13.3-0.2c0-2.6,0-5.2,0-7.9c7.4,0,14.7,0,22.1,0c0.5,6.4-0.5,13.3-4.7,18.5c-5.7,7.4-16.3,9.5-24.9,6.6
				C21.5,58,14.8,48.8,15,39.1z"/>
		</g>
	</g>
</g>
</svg>
