<?xml version="1.0" encoding="utf-8"?>
<!-- Generator: Adobe Illustrator 23.0.3, SVG Export Plug-In . SVG Version: 6.00 Build 0)  -->
<svg version="1.1" id="Слой_1" xmlns="http://www.w3.org/2000/svg" xmlns:xlink="http://www.w3.org/1999/xlink" x="0px" y="0px"
	 viewBox="0 0 545 713" style="enable-background:new 0 0 545 713;" xml:space="preserve">
<style type="text/css">
	.st0{fill:#E5E5E5;}
</style>
<g>
	<g>
		<path class="st0" d="M22.2,41.9h236.3c3.9,0,7,3.2,7,7v140.2c0,3.9-3.2,7-7,7H22.2c-3.9,0-7-3.2-7-7V48.9
			C15.2,45.1,18.4,41.9,22.2,41.9z"/>
	</g>
	<g>
		<path class="st0" d="M286.4,41.9h237.3c3.9,0,7,3.2,7,7v140.2c0,3.9-3.2,7-7,7H286.4c-3.9,0-7-3.2-7-7V48.9
			C279.4,45.1,282.6,41.9,286.4,41.9z"/>
	</g>
	<g>
		<path class="st0" d="M19.9,213.2h191c2.6,0,4.8,2.1,4.8,4.8v0.5c0,2.6-2.1,4.8-4.8,4.8h-191c-2.6,0-4.7-2.1-4.7-4.8V218
			C15.2,215.3,17.3,213.2,19.9,213.2z"/>
	</g>
	<g>
		<path class="st0" d="M20.2,233.2h151.6c2.8,0,5,2.2,5,5l0,0c0,2.8-2.2,5-5,5H20.2c-2.8,0-5-2.2-5-5l0,0
			C15.2,235.4,17.4,233.2,20.2,233.2z"/>
	</g>
	<g>
		<path class="st0" d="M284.4,213.2h189c2.6,0,4.8,2.1,4.8,4.8v0.5c0,2.6-2.1,4.8-4.8,4.8h-189c-2.6,0-4.8-2.1-4.8-4.8V218
			C279.6,215.3,281.7,213.2,284.4,213.2z"/>
	</g>
	<g>
		<path class="st0" d="M284.4,233.2h150.1c2.6,0,4.8,2.1,4.8,4.8v0.5c0,2.6-2.1,4.8-4.8,4.8H284.4c-2.6,0-4.8-2.1-4.8-4.8V238
			C279.6,235.3,281.7,233.2,284.4,233.2z"/>
	</g>
</g>
<g>
	<g>
		<path class="st0" d="M22.2,263.2h236.3c3.9,0,7,3.2,7,7v140.2c0,3.9-3.2,7-7,7H22.2c-3.9,0-7-3.2-7-7V270.2
			C15.2,266.3,18.4,263.2,22.2,263.2z"/>
	</g>
	<g>
		<path class="st0" d="M286.4,263.2h237.3c3.9,0,7,3.2,7,7v140.2c0,3.9-3.2,7-7,7H286.4c-3.9,0-7-3.2-7-7V270.2
			C279.4,266.3,282.6,263.2,286.4,263.2z"/>
	</g>
	<g>
		<path class="st0" d="M19.9,434.5h191c2.6,0,4.8,2.1,4.8,4.7v0.5c0,2.6-2.1,4.8-4.8,4.8h-191c-2.6,0-4.7-2.1-4.7-4.8v-0.5
			C15.2,436.6,17.3,434.5,19.9,434.5z"/>
	</g>
	<g>
		<path class="st0" d="M20.2,454.5h151.6c2.8,0,5,2.2,5,5l0,0c0,2.8-2.2,5-5,5H20.2c-2.8,0-5-2.2-5-5l0,0
			C15.2,456.7,17.4,454.5,20.2,454.5z"/>
	</g>
	<g>
		<path class="st0" d="M284.4,434.5h189c2.6,0,4.8,2.1,4.8,4.7v0.5c0,2.6-2.1,4.8-4.8,4.8h-189c-2.6,0-4.8-2.1-4.8-4.8v-0.5
			C279.6,436.6,281.7,434.5,284.4,434.5z"/>
	</g>
	<g>
		<path class="st0" d="M284.4,454.5h150.1c2.6,0,4.8,2.1,4.8,4.7v0.5c0,2.6-2.1,4.8-4.8,4.8H284.4c-2.6,0-4.8-2.1-4.8-4.8v-0.5
			C279.6,456.6,281.7,454.5,284.4,454.5z"/>
	</g>
</g>
<g>
	<g>
		<path class="st0" d="M22.2,484.5h236.3c3.9,0,7,3.2,7,7v140.2c0,3.9-3.2,7-7,7H22.2c-3.9,0-7-3.2-7-7V491.5
			C15.2,487.6,18.4,484.5,22.2,484.5z"/>
	</g>
	<g>
		<path class="st0" d="M286.4,484.5h237.3c3.9,0,7,3.2,7,7v140.2c0,3.9-3.2,7-7,7H286.4c-3.9,0-7-3.2-7-7V491.5
			C279.4,487.6,282.6,484.5,286.4,484.5z"/>
	</g>
	<g>
		<path class="st0" d="M19.9,655.8h191c2.6,0,4.8,2.1,4.8,4.8v0.5c0,2.6-2.1,4.8-4.8,4.8h-191c-2.6,0-4.7-2.1-4.7-4.8v-0.5
			C15.2,657.9,17.3,655.8,19.9,655.8z"/>
	</g>
	<g>
		<path class="st0" d="M20.2,675.8h151.6c2.8,0,5,2.2,5,5l0,0c0,2.8-2.2,5-5,5H20.2c-2.8,0-5-2.2-5-5l0,0
			C15.2,678,17.4,675.8,20.2,675.8z"/>
	</g>
	<g>
		<path class="st0" d="M284.4,655.8h189c2.6,0,4.8,2.1,4.8,4.8v0.5c0,2.6-2.1,4.8-4.8,4.8h-189c-2.6,0-4.8-2.1-4.8-4.8v-0.5
			C279.6,657.9,281.7,655.8,284.4,655.8z"/>
	</g>
	<g>
		<path class="st0" d="M284.4,675.8h150.1c2.6,0,4.8,2.1,4.8,4.8v0.5c0,2.6-2.1,4.8-4.8,4.8H284.4c-2.6,0-4.8-2.1-4.8-4.8v-0.5
			C279.6,677.9,281.7,675.8,284.4,675.8z"/>
	</g>
</g>
</svg>
